<svg width="144" height="46" viewBox="0 0 144 46" xmlns="http://www.w3.org/2000/svg"><g fill="none" fill-rule="evenodd"><g fill="#02F8FF" fill-opacity=".2" stroke="#02F8FF"><path d="M15.098 16.138v19.714l5.932 9.176 5.068-9.157V16.138l-5.5-9.166-5.5 9.166z"/><path d="M23.79 14.806L6.718 24.663l-4.98 9.725 10.464-.19 17.088-9.866 5.189-9.346-10.689-.18z"/><path d="M29.29 21.668L12.218 11.81l-10.912.549 5.396 8.968 17.088 9.866 10.689-.18-5.189-9.346z"/><path d="M26.098 29.862V10.148L20.166.972l-5.068 9.157v19.733l5.5 9.166 5.5-9.166z"/><path d="M17.406 31.194l17.073-9.857 4.98-9.725-10.464.19-17.09 9.866-5.188 9.346 10.689.18z"/><path d="M11.906 24.332l17.073 9.857 10.911-.549-5.395-8.968-17.09-9.866-10.688.18 5.189 9.346z"/></g><path d="M47.496 31.48c-1.488 0-2.796-.36-3.924-1.08-1.128-.72-1.996-1.7-2.604-2.94-.608-1.24-.912-2.62-.912-4.14 0-1.568.332-3.016.996-4.344.664-1.328 1.568-2.376 2.712-3.144 1.144-.768 2.388-1.152 3.732-1.152 1.28 0 2.404.18 3.372.54.968.36 1.684.82 2.148 1.38.272.336.44.78.504 1.332s.096 1.308.096 2.268h-.48c-.304-1.552-.864-2.7-1.68-3.444-.816-.744-1.896-1.116-3.24-1.116-1.728 0-3.12.608-4.176 1.824-1.056 1.216-1.584 3.168-1.584 5.856 0 1.264.204 2.44.612 3.528.408 1.088 1.044 1.972 1.908 2.652.864.68 1.944 1.02 3.24 1.02 1.168 0 2.188-.28 3.06-.84.872-.56 1.652-1.4 2.34-2.52l.48.36c-.736 1.44-1.644 2.46-2.724 3.06-1.08.6-2.372.9-3.876.9zm9.984 3.6c.784 0 1.428-.18 1.932-.54.504-.36.94-1.02 1.308-1.98l.48-1.32-3.84-9.36c-.448-1.152-1.328-1.792-2.64-1.92v-.48h2.04c1.392 0 2.352.64 2.88 1.92l2.736 6.648L65.4 19.72h1.2l-4.68 12.84c-.464 1.264-.976 2.12-1.536 2.568-.56.448-1.288.672-2.184.672h-.72v-.72zm16.944-3.84c-.816 0-1.488-.128-2.016-.384s-.936-.568-1.224-.936h-.12l-.84 1.08h-1.2V18.04c0-.816-.112-1.42-.336-1.812-.224-.392-.672-.588-1.344-.588h-.48v-.48h2.16c.592 0 1.036.076 1.332.228.296.152.508.428.636.828.128.4.192 1.008.192 1.824v2.16c.464-.224.928-.4 1.392-.528a6.07 6.07 0 0 1 1.608-.192c1.488 0 2.62.552 3.396 1.656.776 1.104 1.164 2.512 1.164 4.224 0 1.696-.376 3.1-1.128 4.212-.752 1.112-1.816 1.668-3.192 1.668zm-.72-.96c.912 0 1.6-.452 2.064-1.356.464-.904.696-2.092.696-3.564 0-1.488-.244-2.68-.732-3.576-.488-.896-1.244-1.344-2.268-1.344-.336 0-.68.064-1.032.192s-.768.304-1.248.528v7.68c.288.432.628.78 1.02 1.044s.892.396 1.5.396zm12.264.96c-1.088 0-2.008-.26-2.76-.78-.752-.52-1.32-1.224-1.704-2.112-.384-.888-.576-1.884-.576-2.988 0-1.088.192-2.08.576-2.976.384-.896.94-1.604 1.668-2.124s1.58-.78 2.556-.78c1.616 0 2.82.452 3.612 1.356.792.904 1.188 2.212 1.188 3.924l-.048.96h-7.272c0 1.344.288 2.44.864 3.288.576.848 1.368 1.272 2.376 1.272.752 0 1.388-.16 1.908-.48.52-.32 1.004-.8 1.452-1.44l.48.36c-.528.88-1.144 1.52-1.848 1.92-.704.4-1.528.6-2.472.6zm2.28-6.48c0-1.408-.208-2.48-.624-3.216-.416-.736-1.048-1.104-1.896-1.104-.48 0-.912.188-1.296.564-.384.376-.684.892-.9 1.548-.216.656-.324 1.392-.324 2.208h5.04zm5.232-2.16c0-.816-.112-1.42-.336-1.812-.224-.392-.672-.588-1.344-.588h-.24v-.48h1.92c.608 0 1.068.084 1.38.252.312.168.532.444.66.828h.12c.288-.368.676-.68 1.164-.936.488-.256 1.06-.384 1.716-.384.64 0 1.12.12 1.44.36.272.208.552.568.84 1.08l-.96.72c-.176-.24-.432-.42-.768-.54-.336-.12-.72-.18-1.152-.18-.48 0-.92.108-1.32.324-.4.216-.72.508-.96.876V31h-2.16v-8.4zm13.512 8.64c-1.088 0-2.008-.26-2.76-.78-.752-.52-1.32-1.224-1.704-2.112-.384-.888-.576-1.884-.576-2.988 0-1.088.192-2.08.576-2.976.384-.896.94-1.604 1.668-2.124s1.58-.78 2.556-.78c1.616 0 2.82.452 3.612 1.356.792.904 1.188 2.212 1.188 3.924l-.048.96h-7.272c0 1.344.288 2.44.864 3.288.576.848 1.368 1.272 2.376 1.272.752 0 1.388-.16 1.908-.48.52-.32 1.004-.8 1.452-1.44l.48.36c-.528.88-1.144 1.52-1.848 1.92-.704.4-1.528.6-2.472.6zm2.28-6.48c0-1.408-.208-2.48-.624-3.216-.416-.736-1.048-1.104-1.896-1.104-.48 0-.912.188-1.296.564-.384.376-.684.892-.9 1.548-.216.656-.324 1.392-.324 2.208h5.04zM117 31.24a4.1 4.1 0 0 1-1.56-.324 3.22 3.22 0 0 1-1.356-1.068c-.376-.496-.564-1.152-.564-1.968 0-1.216.564-2.08 1.692-2.592 1.128-.512 2.604-.768 4.428-.768h.72c0-1.568-.216-2.64-.648-3.216-.432-.576-1.056-.864-1.872-.864-.72 0-1.296.152-1.728.456-.432.304-.736.832-.912 1.584h-1.08c0-.544.032-.972.096-1.284.064-.312.232-.604.504-.876.288-.288.764-.5 1.428-.636a10.832 10.832 0 0 1 2.172-.204c1.296 0 2.32.348 3.072 1.044.752.696 1.128 2.028 1.128 3.996V31h-1.2l-.84-1.08h-.12c-.288.368-.712.68-1.272.936s-1.256.384-2.088.384zm1.08-1.08c.528 0 .968-.128 1.32-.384.352-.256.672-.608.96-1.056v-3.24h-.72c-1.184 0-2.12.22-2.808.66-.688.44-1.032 1.02-1.032 1.74 0 .736.22 1.3.66 1.692.44.392.98.588 1.62.588zm12.408 1.08c-1.152 0-2.124-.26-2.916-.78a4.776 4.776 0 0 1-1.776-2.112c-.392-.888-.588-1.884-.588-2.988s.196-2.1.588-2.988a4.776 4.776 0 0 1 1.776-2.112c.792-.52 1.764-.78 2.916-.78 1.76 0 2.92.28 3.48.84.272.272.44.604.504.996s.096 1.1.096 2.124h-.48c-.064-.992-.376-1.74-.936-2.244-.56-.504-1.288-.756-2.184-.756-1.152 0-2.02.456-2.604 1.368-.584.912-.876 2.096-.876 3.552s.292 2.64.876 3.552c.584.912 1.452 1.368 2.604 1.368.816 0 1.488-.156 2.016-.468.528-.312 1.016-.796 1.464-1.452l.48.36c-.528.896-1.152 1.54-1.872 1.932-.72.392-1.576.588-2.568.588zm10.296 0c-.896 0-1.6-.256-2.112-.768s-.768-1.296-.768-2.352v-7.44h-1.68v-.96h1.68v-2.16l1.2-1.44h.96v3.6h2.88v.96h-2.88v7.44c0 1.44.56 2.16 1.68 2.16.384 0 .708-.04.972-.12.264-.08.54-.2.828-.36l.24.48c-.368.272-.776.5-1.224.684-.448.184-1.04.276-1.776.276z" fill="#01F8FF" fill-rule="nonzero"/></g></svg>