<svg width="42" height="46" viewBox="0 0 42 46" xmlns="http://www.w3.org/2000/svg"><g fill="#02F8FF" stroke="#02F8FF" fill-rule="evenodd" fill-opacity=".2"><path d="M15.5 16.138v19.714l5.932 9.176L26.5 35.87V16.138L21 6.972l-5.5 9.166z"/><path d="M24.192 14.806L7.12 24.663l-4.98 9.725 10.465-.19 17.088-9.866 5.189-9.346-10.689-.18z"/><path d="M29.692 21.668L12.62 11.81l-10.911.549 5.396 8.968 17.088 9.866 10.689-.18-5.189-9.346z"/><path d="M26.5 29.862V10.148L20.568.972 15.5 10.13v19.733l5.5 9.166 5.5-9.166z"/><path d="M17.808 31.194l17.073-9.857 4.98-9.725-10.465.19-17.088 9.866-5.189 9.346 10.689.18z"/><path d="M12.308 24.332L29.38 34.19l10.911-.549-5.396-8.968-17.088-9.866-10.689.18 5.189 9.346z"/></g></svg>